# xmcd
#
# Track frame offsets:
#	150
#	10040
#	18502
#	26652
#	36950
#	46552
#	57327
#	69102
#	78502
#	87482
#	97047
#	108077
#	117427
#	127250
#	138492
#	149732
#	159537
#	171637
#
# Disc length: 2426 seconds
#
# Revision: 1
# Processed by: cddbd v1.4PL0 Copyright (c) Steve Scherf et al.
# Submitted via: audiograbber 1.82.02
#
DISCID=fb097812
DTITLE=Johnny Cash - Johnny Cash: The Essential Sun Collection [CD2]
DYEAR=1999
DGENRE=Country
TTITLE0=Rock Island Line
TTITLE1=Country Boy
TTITLE2=Wreck Of The Old '97
TTITLE3=You Win Again
TTITLE4=It's Just About Time
TTITLE5=I Just Thought You'd Like To Know
TTITLE6=Thanks A Lot
TTITLE7=Luther Played The Boogie
TTITLE8=Katy Too
TTITLE9=I Forgot To Remember To Forget
TTITLE10=I Love You Because
TTITLE11=Down The Street To 301
TTITLE12=The Story Of A Broken Heart
TTITLE13=Mean Eyed Cat
TTITLE14=Oh Lonesome Me
TTITLE15=Born To Lose
TTITLE16=Goodnight Irene
TTITLE17=Cold, Cold Heart
EXTD=
EXTT0=
EXTT1=
EXTT2=
EXTT3=
EXTT4=
EXTT5=
EXTT6=
EXTT7=
EXTT8=
EXTT9=
EXTT10=
EXTT11=
EXTT12=
EXTT13=
EXTT14=
EXTT15=
EXTT16=
EXTT17=
PLAYORDER=
